# xmcd CD database file
#
# Track frame offsets:
#	150
#	19136
#	55048
#	75363
#	96648
#	117763
#	139854
#	168783
#	194143
#	219543
#	247783
#
# Disc length: 3628 seconds
#
# Revision: 1
# Processed by: cddbd v1.5.1PL0 Copyright (c) Steve Scherf et al.
# Submitted via: CDex 1.51
#
DISCID=900e2a0b
DTITLE=Hector Martignon - Foreign Affair
DYEAR=1998
DGENRE=Jazz
TTITLE0=Benitez Sez
TTITLE1=The Foreign Affair
TTITLE2=My one and only love
TTITLE3=La propuesta
TTITLE4=Some day my spring will come
TTITLE5=Blues for Leticia
TTITLE6=Sorrindo
TTITLE7=Prelude N°8 in Eb minor
TTITLE8=Unwritten postcards
TTITLE9=New morning mambo
TTITLE10=As heard
EXTD=YEAR: 1998
EXTT0=
EXTT1=
EXTT2=
EXTT3=
EXTT4=
EXTT5=
EXTT6=
EXTT7=
EXTT8=
EXTT9=
EXTT10=
PLAYORDER=
